<svg xmlns="http://www.w3.org/2000/svg" viewBox="0 0 128 128" role="img" aria-label="Empadas da Lia">
  <defs>
    <linearGradient id="g" x1="0" y1="0" x2="1" y2="1">
      <stop offset="0" stop-color="#D4AF37"/>
      <stop offset="1" stop-color="#9B8B2A"/>
    </linearGradient>
  </defs>
  <g fill="none" stroke-linecap="round" stroke-linejoin="round">
    <path d="M60 18c-6 10 6 14 0 24" stroke="url(#g)" stroke-width="6"/>
    <path d="M76 18c-6 10 6 14 0 24" stroke="url(#g)" stroke-width="6" opacity=".9"/>
    <path d="M26 70c10-18 26-28 38-28s28 10 38 28" stroke="#2C2C2C" stroke-width="6" opacity=".9"/>
    <path d="M34 70c6 26 16 40 30 40s24-14 30-40" stroke="url(#g)" stroke-width="8"/>
    <path d="M44 74c6 6 12 6 18 0s12-6 18 0 12 6 18 0" stroke="#FFFFFF" stroke-width="6" opacity=".7"/>
    <path d="M30 86h68" stroke="#2C2C2C" stroke-width="6" opacity=".25"/>
  </g>
</svg>

